<svg xmlns="http://www.w3.org/2000/svg" viewBox="0 0 1600 1000" role="img" aria-labelledby="title desc"><title id="title">Divisione di un appartamento di 180 metri quadrati in due unità</title><desc id="desc">Schizzo architettonico con due cucine, tre bagni e impianti da verificare prima di recuperare i disimpegni.</desc><rect width="1600" height="1000" fill="#f8f6f1"/><g opacity=".28" fill="none" stroke="#b9b3a9" stroke-width="2"><path d="M70 160h1460M70 840h1460"/><path d="M170 95v810M1430 95v810"/></g><text x="90" y="110" font-family="Arial,Helvetica,sans-serif" font-weight="700" font-size="38" letter-spacing="2" fill="#252927">DIVIDERE 180 MQ IN DUE CASE</text><text x="92" y="150" font-family="Georgia,serif" font-style="italic" font-size="24" fill="#58605b">prima dei corridoi: dove possono stare due cucine e tre bagni?</text><g transform="translate(260 205)"><path d="M120 90H520L650 30l240 170 250 20 180 200-100 270H760L650 610H120Z" fill="#fff" stroke="#343a36" stroke-width="8" stroke-linejoin="round"/><path d="M120 90H520L650 30l155 110-130 190-95 75H120Z" fill="#dfe7e5" opacity=".92"/><path d="M805 140l85 60 250 20 180 200-100 270H760L650 610l35-205 115-75 75-110Z" fill="#e7dfd2" opacity=".92"/><path d="M580 405h225v205H650l-70-55Z" fill="#f5f2eb" stroke="#68716c" stroke-width="5"/><path d="M120 90H520L650 30l240 170 250 20 180 200-100 270H760L650 610H120Z" fill="none" stroke="#343a36" stroke-width="8" stroke-linejoin="round"/><path d="M520 90v315M650 30v300M805 140v190M580 405H120M580 555H120M805 330l335-110M805 330l415 360M650 610l110 80" fill="none" stroke="#69716d" stroke-width="4"/><path d="M270 90v315M395 405v205M950 180l-95 155M1020 365l230 55M1030 520l190 170" fill="none" stroke="#8b938f" stroke-width="3"/><g fill="none" stroke="#252927" stroke-width="4"><path d="M120 470h-85"/><path d="M35 470q55 0 55 55"/><path d="M740 690v92"/><path d="M740 782q0-58 58-58"/></g><text x="210" y="285" font-family="Georgia,serif" font-style="italic" font-size="30" fill="#2f5f52">unità più piccola</text><text x="930" y="470" font-family="Georgia,serif" font-style="italic" font-size="30" fill="#7a5d45">unità principale</text><text x="594" y="500" font-family="Georgia,serif" font-style="italic" font-size="24" fill="#414744">disimpegno</text><g stroke="#2f5f52" stroke-width="4" fill="#f7fbfa"><rect x="185" y="320" width="150" height="65" rx="8"/><circle cx="220" cy="352" r="18"/><path d="M255 332v40M285 332v40"/><rect x="415" y="230" width="78" height="95" rx="10"/><path d="M425 252h58M438 275h32"/></g><g stroke="#7a5d45" stroke-width="4" fill="#fbf8f3"><rect x="890" y="330" width="165" height="65" rx="8"/><circle cx="930" cy="362" r="18"/><path d="M970 342v40M1002 342v40"/><rect x="1100" y="285" width="78" height="95" rx="10"/><path d="M1110 307h58M1123 330h32"/><rect x="1050" y="515" width="78" height="95" rx="10"/><path d="M1060 537h58M1073 560h32"/></g><g fill="none" stroke="#b56d4d" stroke-width="6" stroke-linecap="round" stroke-dasharray="16 14"><path d="M455 325C560 365 650 385 735 420"/><path d="M1088 515C950 500 860 470 760 430"/></g><circle cx="738" cy="422" r="12" fill="#b56d4d"/><text x="210" y="415" font-family="Georgia,serif" font-style="italic" font-size="22" fill="#2f5f52">cucina + bagno</text><text x="930" y="640" font-family="Georgia,serif" font-style="italic" font-size="22" fill="#7a5d45">cucina + 2 bagni</text></g><g fill="none" stroke="#333936" stroke-width="3"><path d="M175 515c-70 5-95 55-92 115"/><path d="M83 630l-11-20m11 20 18-12"/><path d="M1325 340c105 0 135 50 130 115"/><path d="M1455 455l-14-20m14 20 20-10"/><path d="M1190 790c65 50 65 95 30 130"/><path d="M1220 920l-4-24m4 24 23-3"/></g><text x="72" y="670" font-family="Georgia,serif" font-style="italic" font-size="25" fill="#343a36">DUE INGRESSI CI SONO.</text><text x="72" y="702" font-family="Georgia,serif" font-style="italic" font-size="25" fill="#343a36">GLI IMPIANTI DOVE SONO?</text><text x="1195" y="295" font-family="Georgia,serif" font-style="italic" font-size="25" fill="#343a36">IL CORRIDOIO SI RIDUCE</text><text x="1195" y="327" font-family="Georgia,serif" font-style="italic" font-size="25" fill="#343a36">DOPO AVER FISSATO I SERVIZI</text><text x="900" y="870" font-family="Georgia,serif" font-style="italic" font-size="24" fill="#343a36">PRIMA DELL'ACQUISTO È UNA VERIFICA.</text><text x="900" y="902" font-family="Georgia,serif" font-style="italic" font-size="24" fill="#343a36">DOPO PUÒ DIVENTARE UNO SPOSTAMENTO DI SCARICHI.</text><g stroke="#555d58" stroke-width="2" fill="none"><path d="M360 815h500"/><path d="M360 800v30M860 800v30"/></g><text x="520" y="855" font-family="Arial,Helvetica,sans-serif" font-size="22" fill="#555d58">2 CUCINE · 3 BAGNI · 1 DISTRIBUZIONE</text></svg>