<svg xmlns="http://www.w3.org/2000/svg" viewBox="0 0 1600 1000"><rect width="1600" height="1000" fill="#f7f4ec"/><g stroke="#d5d8d4" stroke-width="2"><path d="M100 180H1500M100 360H1500M100 540H1500M100 720H1500M300 100V900M600 100V900M900 100V900M1200 100V900"/></g><path d="M240 760V250h1110v510z" fill="#fff" stroke="#39443f" stroke-width="6"/><path d="M240 760l220-180h670l220 180" fill="#f2efe8" stroke="#89938f" stroke-width="4"/><rect x="430" y="330" width="350" height="180" fill="#faf8f2" stroke="#65716c" stroke-width="4"/><path d="M500 330v180M570 330v180M640 330v180M710 330v180" stroke="#a5ada9" stroke-width="3"/><rect x="950" y="320" width="240" height="210" fill="#d9e8ec" stroke="#65716c" stroke-width="4"/><rect x="1020" y="565" width="210" height="120" rx="14" fill="#b7c0bd" stroke="#59635e" stroke-width="4"/><rect x="560" y="560" width="330" height="185" rx="20" fill="#d9c9ad" stroke="#6b6457" stroke-width="4"/><rect x="600" y="590" width="250" height="120" fill="#f8f6ef" stroke="#8b8478" stroke-width="3"/><rect x="1190" y="320" width="120" height="210" fill="#b79a76" stroke="#5d655f" stroke-width="4"/><path d="M350 760V610h110" fill="none" stroke="#4f5c56" stroke-width="5"/><path d="M350 610q110 0 110 110" fill="none" stroke="#b55b4c" stroke-width="5" stroke-dasharray="13 11"/><path d="M360 700c150-80 300-75 450 5s300 80 470-10" fill="none" stroke="#2d5d49" stroke-width="7"/><text x="180" y="145" font-family="Georgia,serif" font-style="italic" font-size="28" fill="#39443f">camera irregolare: percorso, letto e contenimento</text><text x="1070" y="285" font-family="Georgia,serif" font-style="italic" font-size="27" fill="#39443f">zona guardaroba</text></svg>