<svg xmlns="http://www.w3.org/2000/svg" viewBox="0 0 1200 760" role="img" aria-labelledby="t d"><title id="t">Controllo progetto cucina</title><desc id="d">Cucina moderna con lavastoviglie aperta e passaggio evidenziato</desc><defs><linearGradient id="bg" x1="0" y1="0" x2="1" y2="1"><stop stop-color="#d8d0c3"/><stop offset="1" stop-color="#7d7368"/></linearGradient><linearGradient id="cab" x1="0" y1="0" x2="0" y2="1"><stop stop-color="#283238"/><stop offset="1" stop-color="#11191d"/></linearGradient><filter id="s"><feDropShadow dx="0" dy="12" stdDeviation="14" flood-opacity=".28"/></filter></defs><rect width="1200" height="760" fill="url(#bg)"/><rect y="520" width="1200" height="240" fill="#b9aa96"/><path d="M0 520h1200M160 520l-70 240M410 520l-20 240M650 520l20 240M900 520l70 240" stroke="#8e7f6c" stroke-width="3" opacity=".45"/><g filter="url(#s)"><rect x="40" y="120" width="330" height="400" rx="8" fill="url(#cab)"/><rect x="390" y="115" width="215" height="405" rx="8" fill="#2b3439"/><rect x="840" y="110" width="320" height="410" rx="8" fill="url(#cab)"/><rect x="30" y="90" width="590" height="55" rx="9" fill="#6e5c46"/><rect x="820" y="90" width="350" height="55" rx="9" fill="#6e5c46"/></g><rect x="100" y="180" width="210" height="240" rx="6" fill="#151d21"/><rect x="120" y="210" width="170" height="95" rx="4" fill="#0c1114"/><circle cx="205" cy="355" r="10" fill="#a9977e"/><rect x="430" y="150" width="135" height="340" rx="5" fill="#4a555a"/><rect x="444" y="168" width="107" height="170" rx="3" fill="#20292d"/><rect x="880" y="150" width="240" height="330" rx="4" fill="#202a2f"/><rect x="40" y="520" width="565" height="54" rx="8" fill="#5f4e3a"/><rect x="820" y="520" width="340" height="54" rx="8" fill="#5f4e3a"/><g><rect x="280" y="520" width="260" height="30" rx="4" fill="#20292d"/><path d="M300 545h220l95 175H205z" fill="#343d41" stroke="#11181c" stroke-width="6"/><rect x="255" y="582" width="310" height="16" rx="8" fill="#899398" opacity=".55"/><path d="M230 676h360" stroke="#d8e6e9" stroke-width="5" stroke-dasharray="18 16"/><path d="M745 635h-120" stroke="#f4f0e8" stroke-width="6"/><path d="M625 635l26-18v36z" fill="#f4f0e8"/><path d="M745 635l-26-18v36z" fill="#f4f0e8"/></g><rect x="650" y="110" width="135" height="410" fill="#eee7db"/><rect x="675" y="145" width="85" height="260" fill="#b9d2d5"/><path d="M650 520h135" stroke="#6b7d80" stroke-width="6"/><circle cx="718" cy="472" r="15" fill="#2b3a3e"/><g fill="#f4f0e8" font-family="Arial,sans-serif"><text x="632" y="603" font-size="28" font-weight="700">Passaggio utile</text><text x="292" y="736" font-size="27" font-weight="700">Apertura lavastoviglie</text></g></svg>