<svg xmlns="http://www.w3.org/2000/svg" viewBox="0 0 1600 1000"><defs><linearGradient id="b" x2="1" y2="1"><stop stop-color="#fbfaf7"/><stop offset="1" stop-color="#eeeae2"/></linearGradient><linearGradient id="w" x2="1" y2="1"><stop stop-color="#d7c8b1"/><stop offset="1" stop-color="#aa9071"/></linearGradient></defs><rect width="1600" height="1000" fill="url(#b)"/><g fill="none" stroke="#35423c"><path d="M120 730V260l220-110h650l210 110v470z" fill="#fff" stroke-width="6"/><path d="M120 730l220-120h650l210 120" fill="#ece9e2" stroke-width="4"/><path d="M340 150v460M990 150v460" stroke="#87908c" stroke-width="3"/></g><g stroke="#4d5853"><rect x="340" y="230" width="300" height="380" fill="url(#w)" stroke-width="5"/><rect x="380" y="270" width="220" height="90" fill="#f7f4ec" stroke-width="3"/><rect x="380" y="390" width="220" height="90" fill="#f7f4ec" stroke-width="3"/><rect x="380" y="510" width="220" height="70" fill="#f7f4ec" stroke-width="3"/></g><path d="M750 650h205" stroke="#a54d45" stroke-width="9"/><path d="M750 650v-65M955 650v-65" stroke="#a54d45" stroke-width="4"/><g font-family="Georgia,serif" font-style="italic" fill="#26342e"><text x="80" y="85" font-family="Arial,sans-serif" font-style="normal" font-size="36" font-weight="700">SISTEMA 90G</text><text x="80" y="125" font-family="Arial,sans-serif" font-style="normal" font-size="18">ANALISI PREVENTIVA</text><text x="710" y="555" font-size="34" fill="#a54d45">passaggio residuo</text><text x="125" y="850" font-size="32">Spostare la porta libera l’accesso,</text><text x="125" y="895" font-size="32">ma non aumenta la larghezza interna.</text></g><g transform="translate(1210 205)" font-family="Georgia,serif" font-style="italic"><rect width="310" height="520" rx="8" fill="#fff" stroke="#43514b" stroke-width="5"/><text x="35" y="55" font-size="30" fill="#26342e">125 cm totali</text><rect x="45" y="110" width="220" height="280" fill="#faf8f2" stroke="#35423c" stroke-width="5"/><rect x="45" y="110" width="106" height="280" fill="url(#w)" stroke="#4d5853" stroke-width="4"/><path d="M151 110v280" stroke="#a54d45" stroke-width="4" stroke-dasharray="12 10"/><text x="45" y="440" font-size="25" fill="#26342e">circa 60 cm</text><text x="155" y="480" font-size="25" fill="#a54d45">circa 65 cm</text></g></svg>